Coordinates
version=1
nRows=28
nColumns=38
inDegrees=no

Units are S.I. units (second, meters, Newtons, ...)
If the header above contains a line with 'inDegrees', this indicates whether rotational values are in degrees (yes) or radians (no).

endheader
time	pelvis_tilt	pelvis_list	pelvis_rotation	pelvis_tx	pelvis_ty	pelvis_tz	hip_flexion_r	hip_adduction_r	hip_rotation_r	knee_angle_r	ankle_angle_r	subtalar_angle_r	mtp_angle_r	hip_flexion_l	hip_adduction_l	hip_rotation_l	knee_angle_l	ankle_angle_l	subtalar_angle_l	mtp_angle_l	lumbar_extension	lumbar_bending	lumbar_rotation	arm_flex_r	arm_add_r	arm_rot_r	elbow_flex_r	pro_sup_r	wrist_flex_r	wrist_dev_r	arm_flex_l	arm_add_l	arm_rot_l	elbow_flex_l	pro_sup_l	wrist_flex_l	wrist_dev_l
12.39	-2.70646	1.39642	-2.16828	0.744618	-0.650099	0.933479	-0.313569	-0.251577	-0.594251	0.522318	0.0700682	0	0	0.0896907	0.0811222	-0.414081	0.291474	-0.104074	0	0	-0.30843	-0.18335	0.198227	0.635806	-0.403378	0.118878	1.5079	1.5708	0	0	0.942521	-0.534526	1.5708	1.36546	1.5708	0	0
12.4	-2.76427	1.40248	-2.11572	0.745688	-0.654723	0.931817	-0.314127	-0.236228	-0.590641	0.511138	0.0810018	0	0	0.0916569	0.0703786	-0.429484	0.280179	-0.0640202	0	0	-0.302945	-0.167098	0.205544	0.640234	-0.404612	0.128444	1.50888	1.5708	0	0	0.938085	-0.533675	1.5708	1.36227	1.5708	0	0
12.41	-2.72999	1.3925	-2.15246	0.747523	-0.66129	0.93272	-0.319384	-0.241469	-0.590537	0.50028	0.0901895	0	0	0.0998474	0.0727053	-0.420661	0.29745	-0.11186	0	0	-0.310931	-0.178357	0.203795	0.646131	-0.396835	0.128165	1.50341	1.5708	0	0	0.942768	-0.53775	1.5708	1.35957	1.5708	0	0
12.42	-2.80906	1.40141	-2.07977	0.748558	-0.666659	0.931501	-0.311153	-0.212972	-0.541502	0.507064	0.195149	0	0	0.103647	0.0569328	-0.433566	0.286439	-0.0752558	0	0	-0.306431	-0.157142	0.212672	0.652503	-0.398267	0.135712	1.50115	1.5708	0	0	0.936917	-0.535877	1.5708	1.35379	1.5708	0	0
12.43	-2.80661	1.39533	-2.08689	0.750856	-0.673968	0.932752	-0.325681	-0.238052	-0.661365	0.484186	0.11049	0	0	0.113541	0.0492655	-0.426222	0.307257	-0.121288	0	0	-0.315095	-0.162217	0.215016	0.659452	-0.392184	0.137206	1.49417	1.5708	0	0	0.941768	-0.537522	1.5708	1.34751	1.5708	0	0
12.44	-2.75874	1.38691	-2.13082	0.751623	-0.677913	0.931576	-0.330421	-0.223321	-0.587873	0.461916	0.119621	0	0	0.113795	0.0620827	-0.422505	0.302676	-0.127994	0	0	-0.313287	-0.171334	0.208624	0.660287	-0.3878	0.140506	1.4911	1.5708	0	0	0.940722	-0.542822	1.5708	1.35159	1.5708	0	0
12.45	-2.78213	1.36775	-2.12506	0.753131	-0.680839	0.932378	-0.354054	-0.232628	-0.584919	0.445162	0.127751	0	0	0.0794105	0.0777033	-0.452774	0.262371	-0.102424	0	0	-0.323041	-0.175844	0.223454	0.661806	-0.390952	0.151241	1.4923	1.5708	0	0	0.932664	-0.540637	1.5708	1.34746	1.5708	0	0
12.46	-2.7745	1.35575	-2.13385	0.754784	-0.688235	0.934308	-0.358637	-0.227398	-0.549559	0.44892	0.218792	0	0	0.0824191	0.0772413	-0.442989	0.276181	-0.156736	0	0	-0.338087	-0.184266	0.220417	0.669968	-0.385446	0.15243	1.48669	1.5708	0	0	0.938076	-0.542835	1.5708	1.34301	1.5708	0	0
12.47	-2.79416	1.38266	-2.09917	0.755575	-0.69451	0.93061	-0.342102	-0.200192	-0.591178	0.42163	0.146843	0	0	0.126	0.0493888	-0.422272	0.3045	-0.142844	0	0	-0.315946	-0.162169	0.210909	0.6731	-0.381474	0.155546	1.48142	1.5708	0	0	0.938441	-0.547041	1.5708	1.34474	1.5708	0	0
12.48	-2.80938	1.38167	-2.08463	0.756878	-0.700002	0.930323	-0.346175	-0.19119	-0.594991	0.40766	0.154848	0	0	0.12918	0.0445445	-0.421443	0.303623	-0.147983	0	0	-0.316823	-0.158281	0.211373	0.677136	-0.379589	0.15922	1.47871	1.5708	0	0	0.937241	-0.549227	1.5708	1.34365	1.5708	0	0
12.49	-2.82678	1.38073	-2.06817	0.75825	-0.705477	0.930083	-0.350613	-0.181094	-0.598114	0.392191	0.161396	0	0	0.132016	0.0390235	-0.421449	0.302404	-0.152891	0	0	-0.318018	-0.154131	0.211969	0.681412	-0.377677	0.163327	1.47603	1.5708	0	0	0.936239	-0.551095	1.5708	1.34242	1.5708	0	0
12.5	-2.86425	1.37296	-2.0346	0.759556	-0.709833	0.930645	-0.365326	-0.178039	-0.602531	0.387909	0.174575	0	0	0.121668	0.0370373	-0.438884	0.290741	-0.119253	0	0	-0.324774	-0.148983	0.215546	0.684202	-0.377822	0.169521	1.4744	1.5708	0	0	0.932573	-0.550652	1.5708	1.33946	1.5708	0	0
12.51	-2.83859	1.36381	-2.05916	0.761206	-0.716486	0.931916	-0.372364	-0.17842	-0.609221	0.37386	0.178642	0	0	0.126978	0.0373267	-0.424993	0.305649	-0.168119	0	0	-0.334167	-0.159096	0.211471	0.688476	-0.372462	0.168569	1.46977	1.5708	0	0	0.936595	-0.553039	1.5708	1.33644	1.5708	0	0
12.52	-2.81969	1.33229	-2.09361	0.763051	-0.720643	0.934837	-0.40342	-0.199244	-0.614498	0.35697	0.18149	0	0	0.0885749	0.0630148	-0.450098	0.272386	-0.193639	0	0	-0.356659	-0.180055	0.219874	0.691599	-0.371493	0.172398	1.46483	1.5708	0	0	0.933358	-0.553267	1.5708	1.33306	1.5708	0	0
12.53	-2.91307	1.36239	-2.00091	0.76334	-0.724446	0.930401	-0.386644	-0.150302	-0.602451	0.324243	0.178865	0	0	0.105216	0.0327909	-0.459648	0.256065	-0.132708	0	0	-0.329367	-0.140145	0.229774	0.691929	-0.379652	0.188945	1.46703	1.5708	0	0	0.919267	-0.54944	1.5708	1.32952	1.5708	0	0
12.54	-2.92518	1.37529	-1.97398	0.764667	-0.732506	0.929628	-0.374307	-0.12467	-0.606264	0.309129	0.18097	0	0	0.140226	0.00985854	-0.425661	0.291916	-0.164321	0	0	-0.325504	-0.132174	0.216461	0.69638	-0.37362	0.186847	1.46497	1.5708	0	0	0.924051	-0.555254	1.5708	1.33	1.5708	0	0
12.55	-2.94041	1.37689	-1.9583	0.765815	-0.737822	0.929386	-0.375187	-0.112708	-0.605729	0.293428	0.183146	0	0	0.145493	0.0034179	-0.424886	0.291151	-0.164655	0	0	-0.324266	-0.127524	0.216099	0.696823	-0.372479	0.188237	1.46576	1.5708	0	0	0.919062	-0.557392	1.5708	1.32853	1.5708	0	0
12.56	-3.01266	1.38566	-1.88823	0.766448	-0.741775	0.927597	-0.37424	-0.0888845	-0.597943	0.275301	0.185436	0	0	0.15025	-0.00981533	-0.443147	0.276957	-0.123234	0	0	-0.314515	-0.107059	0.221991	0.695626	-0.378027	0.1988	1.4729	1.5708	0	0	0.90914	-0.555623	1.5708	1.32611	1.5708	0	0
12.57	-3.0119	1.38435	-1.8901	0.767815	-0.747098	0.927779	-0.376401	-0.0817189	-0.593777	0.260114	0.186749	0	0	0.152517	-0.0139462	-0.447928	0.276891	-0.122689	0	0	-0.315328	-0.107798	0.222329	0.695045	-0.376448	0.200108	1.47532	1.5708	0	0	0.90561	-0.558043	1.5708	1.32517	1.5708	0	0
12.58	-2.99542	1.38395	-1.90498	0.768976	-0.752916	0.928107	-0.375267	-0.0769297	-0.591422	0.247743	0.187597	0	0	0.156165	-0.0126959	-0.418799	0.273284	-0.164706	0	0	-0.316555	-0.111301	0.218971	0.695275	-0.373313	0.200408	1.47765	1.5708	0	0	0.903482	-0.562504	1.5708	1.32561	1.5708	0	0
12.59	-3.0205	1.31861	-1.91402	0.775027	-0.7597	0.937269	-0.448219	-0.0877997	-0.550821	0.208711	0.160728	0	0	0.0719277	0.000408281	-0.464384	0.241331	-0.20073	0	0	-0.387343	-0.142527	0.242247	0.70547	-0.368727	0.201029	1.47901	1.5708	0	0	0.911496	-0.568296	1.5708	1.32632	1.5708	0	0
12.6	-3.06337	1.3863	-1.83536	0.769571	-0.76131	0.927468	-0.37732	-0.0620421	-0.578097	0.261387	0.258612	0	0	0.16102	-0.0250998	-0.439785	0.262429	-0.126408	0	0	-0.313336	-0.0918245	0.217607	0.693679	-0.377305	0.214581	1.4934	1.5708	0	0	0.879962	-0.566288	1.55397	1.32499	1.5708	0	0
12.61	-3.06429	1.38398	-1.84411	0.773234	-0.770229	0.930237	-0.366882	-0.0676781	-0.649725	0.254276	0.238342	0	0	0.171557	-0.0395192	-0.419301	0.281407	-0.175416	0	0	-0.325716	-0.100712	0.224466	0.697692	-0.36968	0.21045	1.4918	1.5708	0	0	0.881615	-0.571418	1.54331	1.32006	1.5708	0	0
12.62	2.99959	1.36595	-1.63347	0.776503	-0.777406	0.932752	-0.395423	-0.00874227	-0.621027	0.206663	0.167474	0	0	0.123773	-0.0917018	-0.341577	0.232958	-0.184177	0	0	-0.35678	-0.0627745	0.238641	0.711456	-0.373777	0.222759	1.49943	1.5708	0	0	0.877344	-0.575401	1.52383	1.32538	1.5708	0	0
12.63	3.03655	1.3558	-1.67293	0.777518	-0.782444	0.934808	-0.403023	-0.0157686	-0.619165	0.20139	0.164725	0	0	0.140217	-0.0847429	-0.431565	0.279106	-0.170361	0	0	-0.368637	-0.0730329	0.237193	0.710717	-0.370996	0.223434	1.50152	1.5708	0	0	0.868201	-0.580369	1.50754	1.32628	1.5708	0	0
12.64	2.96057	1.36196	-1.5963	0.777531	-0.785194	0.933201	-0.397743	0.00377646	-0.614993	0.1951	0.165134	0	0	0.137543	-0.0918928	-0.450387	0.247861	-0.124573	0	0	-0.357649	-0.0514505	0.239554	0.705486	-0.375723	0.230804	1.51254	1.5708	0	0	0.847688	-0.582865	1.48779	1.32958	1.5708	0	0
12.65	3.00002	1.35148	-1.64198	0.776779	-0.787768	0.934628	-0.406701	-0.0112086	-0.615408	0.195714	0.166778	0	0	0.106711	-0.0742064	-0.467846	0.209	-0.126689	0	0	-0.364782	-0.0571308	0.241738	0.700212	-0.380239	0.235756	1.52311	1.5708	0	0	0.82723	-0.583871	1.46658	1.32982	1.5708	0	0
12.66	3.08236	1.32971	-1.72673	0.779351	-0.794339	0.93916	-0.423338	-0.0301283	-0.606131	0.202562	0.202352	0	0	0.0896042	-0.0583962	-0.441103	0.212544	-0.183233	0	0	-0.393284	-0.0864516	0.236664	0.698381	-0.372491	0.230883	1.52917	1.5708	0	0	0.827527	-0.594476	1.45205	1.33457	1.5708	0	0
